<mxfile host="app.diagrams.net" modified="2021-06-02T10:45:52.176Z" agent="5.0 (Windows NT 10.0; Win64; x64) AppleWebKit/537.36 (KHTML, like Gecko) Chrome/91.0.4472.77 Safari/537.36 Edg/91.0.864.37" etag="2otfod6QiX62etzQDw7a" version="14.7.3" type="github">
  <diagram id="IpWONe0lW_O0FwHwmjcl" name="Page-1">
    <mxGraphModel dx="865" dy="460" grid="0" gridSize="10" guides="1" tooltips="1" connect="1" arrows="0" fold="1" page="1" pageScale="1" pageWidth="2339" pageHeight="3300" math="0" shadow="0">
      <root>
        <mxCell id="0" />
        <mxCell id="1" parent="0" />
        <mxCell id="Q33X_0vtCbviZvREUbf4-5" value="" style="edgeStyle=orthogonalEdgeStyle;rounded=0;orthogonalLoop=1;jettySize=auto;html=1;" parent="1" source="Q33X_0vtCbviZvREUbf4-3" target="Q33X_0vtCbviZvREUbf4-4" edge="1">
          <mxGeometry relative="1" as="geometry" />
        </mxCell>
        <mxCell id="Q33X_0vtCbviZvREUbf4-9" value="" style="edgeStyle=orthogonalEdgeStyle;rounded=0;orthogonalLoop=1;jettySize=auto;html=1;" parent="1" source="Q33X_0vtCbviZvREUbf4-3" target="Q33X_0vtCbviZvREUbf4-8" edge="1">
          <mxGeometry relative="1" as="geometry" />
        </mxCell>
        <mxCell id="Q33X_0vtCbviZvREUbf4-3" value="" style="ellipse;whiteSpace=wrap;html=1;aspect=fixed;fillColor=#f5f5f5;strokeColor=#666666;fontColor=#333333;" parent="1" vertex="1">
          <mxGeometry x="190" y="400" width="80" height="80" as="geometry" />
        </mxCell>
        <mxCell id="Q33X_0vtCbviZvREUbf4-7" value="" style="edgeStyle=orthogonalEdgeStyle;rounded=0;orthogonalLoop=1;jettySize=auto;html=1;" parent="1" source="Q33X_0vtCbviZvREUbf4-4" target="Q33X_0vtCbviZvREUbf4-6" edge="1">
          <mxGeometry relative="1" as="geometry" />
        </mxCell>
        <mxCell id="Q33X_0vtCbviZvREUbf4-14" value="" style="edgeStyle=orthogonalEdgeStyle;rounded=0;orthogonalLoop=1;jettySize=auto;html=1;" parent="1" source="Q33X_0vtCbviZvREUbf4-4" target="Q33X_0vtCbviZvREUbf4-10" edge="1">
          <mxGeometry relative="1" as="geometry" />
        </mxCell>
        <mxCell id="Q33X_0vtCbviZvREUbf4-4" value="" style="ellipse;whiteSpace=wrap;html=1;aspect=fixed;fillColor=#f5f5f5;strokeColor=#666666;fontColor=#333333;" parent="1" vertex="1">
          <mxGeometry x="460" y="400" width="80" height="80" as="geometry" />
        </mxCell>
        <mxCell id="Q33X_0vtCbviZvREUbf4-15" value="" style="edgeStyle=orthogonalEdgeStyle;rounded=0;orthogonalLoop=1;jettySize=auto;html=1;" parent="1" source="Q33X_0vtCbviZvREUbf4-6" target="Q33X_0vtCbviZvREUbf4-12" edge="1">
          <mxGeometry relative="1" as="geometry" />
        </mxCell>
        <mxCell id="Q33X_0vtCbviZvREUbf4-6" value="" style="ellipse;whiteSpace=wrap;html=1;aspect=fixed;fillColor=#f5f5f5;strokeColor=#666666;fontColor=#333333;" parent="1" vertex="1">
          <mxGeometry x="700" y="400" width="80" height="80" as="geometry" />
        </mxCell>
        <mxCell id="Q33X_0vtCbviZvREUbf4-11" value="" style="edgeStyle=orthogonalEdgeStyle;rounded=0;orthogonalLoop=1;jettySize=auto;html=1;" parent="1" source="Q33X_0vtCbviZvREUbf4-8" target="Q33X_0vtCbviZvREUbf4-10" edge="1">
          <mxGeometry relative="1" as="geometry" />
        </mxCell>
        <mxCell id="Q33X_0vtCbviZvREUbf4-8" value="" style="ellipse;whiteSpace=wrap;html=1;aspect=fixed;fillColor=#dae8fc;strokeColor=#6c8ebf;" parent="1" vertex="1">
          <mxGeometry x="190" y="630" width="80" height="80" as="geometry" />
        </mxCell>
        <mxCell id="Q33X_0vtCbviZvREUbf4-13" value="" style="edgeStyle=orthogonalEdgeStyle;rounded=0;orthogonalLoop=1;jettySize=auto;html=1;" parent="1" source="Q33X_0vtCbviZvREUbf4-10" target="Q33X_0vtCbviZvREUbf4-12" edge="1">
          <mxGeometry relative="1" as="geometry" />
        </mxCell>
        <mxCell id="Q33X_0vtCbviZvREUbf4-10" value="" style="ellipse;whiteSpace=wrap;html=1;aspect=fixed;fillColor=#dae8fc;strokeColor=#6c8ebf;" parent="1" vertex="1">
          <mxGeometry x="460" y="630" width="80" height="80" as="geometry" />
        </mxCell>
        <mxCell id="Q33X_0vtCbviZvREUbf4-12" value="" style="ellipse;whiteSpace=wrap;html=1;aspect=fixed;strokeColor=#6c8ebf;fillColor=#dae8fc;" parent="1" vertex="1">
          <mxGeometry x="700" y="630" width="80" height="80" as="geometry" />
        </mxCell>
        <mxCell id="Q33X_0vtCbviZvREUbf4-16" value="" style="endArrow=classic;html=1;entryX=0;entryY=1;entryDx=0;entryDy=0;" parent="1" source="Q33X_0vtCbviZvREUbf4-8" target="Q33X_0vtCbviZvREUbf4-4" edge="1">
          <mxGeometry width="50" height="50" relative="1" as="geometry">
            <mxPoint x="300" y="550" as="sourcePoint" />
            <mxPoint x="350" y="500" as="targetPoint" />
          </mxGeometry>
        </mxCell>
        <mxCell id="Q33X_0vtCbviZvREUbf4-17" value="" style="endArrow=classic;html=1;entryX=0;entryY=1;entryDx=0;entryDy=0;exitX=1;exitY=0;exitDx=0;exitDy=0;" parent="1" source="Q33X_0vtCbviZvREUbf4-10" target="Q33X_0vtCbviZvREUbf4-6" edge="1">
          <mxGeometry width="50" height="50" relative="1" as="geometry">
            <mxPoint x="268.28427124746213" y="581.7157287525379" as="sourcePoint" />
            <mxPoint x="371.71572875253787" y="478.28427124746213" as="targetPoint" />
          </mxGeometry>
        </mxCell>
        <mxCell id="Q33X_0vtCbviZvREUbf4-19" value="" style="ellipse;whiteSpace=wrap;html=1;aspect=fixed;fillColor=#fff2cc;strokeColor=#d6b656;" parent="1" vertex="1">
          <mxGeometry x="260" y="500" width="80" height="80" as="geometry" />
        </mxCell>
        <mxCell id="Q33X_0vtCbviZvREUbf4-20" value="" style="ellipse;whiteSpace=wrap;html=1;aspect=fixed;fillColor=#fff2cc;strokeColor=#d6b656;" parent="1" vertex="1">
          <mxGeometry x="520" y="500" width="80" height="80" as="geometry" />
        </mxCell>
        <mxCell id="Q33X_0vtCbviZvREUbf4-21" value="" style="endArrow=classic;html=1;entryX=0.23;entryY=0.048;entryDx=0;entryDy=0;entryPerimeter=0;" parent="1" source="Q33X_0vtCbviZvREUbf4-3" target="Q33X_0vtCbviZvREUbf4-19" edge="1">
          <mxGeometry width="50" height="50" relative="1" as="geometry">
            <mxPoint x="70" y="410" as="sourcePoint" />
            <mxPoint x="120" y="360" as="targetPoint" />
          </mxGeometry>
        </mxCell>
        <mxCell id="Q33X_0vtCbviZvREUbf4-22" value="" style="ellipse;whiteSpace=wrap;html=1;aspect=fixed;fillColor=#fff2cc;strokeColor=#d6b656;" parent="1" vertex="1">
          <mxGeometry x="760" y="500" width="80" height="80" as="geometry" />
        </mxCell>
        <mxCell id="Q33X_0vtCbviZvREUbf4-24" value="" style="endArrow=classic;html=1;" parent="1" source="Q33X_0vtCbviZvREUbf4-8" target="Q33X_0vtCbviZvREUbf4-19" edge="1">
          <mxGeometry width="50" height="50" relative="1" as="geometry">
            <mxPoint x="120" y="600" as="sourcePoint" />
            <mxPoint x="280" y="570" as="targetPoint" />
          </mxGeometry>
        </mxCell>
        <mxCell id="Q33X_0vtCbviZvREUbf4-25" value="" style="endArrow=classic;html=1;exitX=1;exitY=1;exitDx=0;exitDy=0;" parent="1" source="Q33X_0vtCbviZvREUbf4-4" target="Q33X_0vtCbviZvREUbf4-20" edge="1">
          <mxGeometry width="50" height="50" relative="1" as="geometry">
            <mxPoint x="264.2417286105142" y="481.8172688013001" as="sourcePoint" />
            <mxPoint x="288.4000000000001" y="513.8400000000001" as="targetPoint" />
          </mxGeometry>
        </mxCell>
        <mxCell id="Q33X_0vtCbviZvREUbf4-26" value="" style="endArrow=classic;html=1;entryX=0.264;entryY=0.939;entryDx=0;entryDy=0;entryPerimeter=0;" parent="1" target="Q33X_0vtCbviZvREUbf4-20" edge="1">
          <mxGeometry width="50" height="50" relative="1" as="geometry">
            <mxPoint x="508.0354199078818" y="630.0013829148849" as="sourcePoint" />
            <mxPoint x="540" y="570" as="targetPoint" />
          </mxGeometry>
        </mxCell>
        <mxCell id="Q33X_0vtCbviZvREUbf4-27" value="" style="endArrow=classic;html=1;entryX=0.248;entryY=0.939;entryDx=0;entryDy=0;entryPerimeter=0;" parent="1" edge="1">
          <mxGeometry width="50" height="50" relative="1" as="geometry">
            <mxPoint x="759.9954199078818" y="634.8813829148847" as="sourcePoint" />
            <mxPoint x="791.8" y="579.9999999999999" as="targetPoint" />
          </mxGeometry>
        </mxCell>
        <mxCell id="Q33X_0vtCbviZvREUbf4-28" value="" style="endArrow=classic;html=1;" parent="1" source="Q33X_0vtCbviZvREUbf4-6" target="Q33X_0vtCbviZvREUbf4-22" edge="1">
          <mxGeometry width="50" height="50" relative="1" as="geometry">
            <mxPoint x="590" y="590" as="sourcePoint" />
            <mxPoint x="640" y="540" as="targetPoint" />
          </mxGeometry>
        </mxCell>
        <mxCell id="Q33X_0vtCbviZvREUbf4-29" value="&lt;font style=&quot;font-size: 22px&quot;&gt;s&lt;sub&gt;0&lt;/sub&gt;&lt;/font&gt;" style="text;html=1;strokeColor=none;fillColor=none;align=center;verticalAlign=middle;whiteSpace=wrap;rounded=0;" parent="1" vertex="1">
          <mxGeometry x="210" y="430" width="40" height="20" as="geometry" />
        </mxCell>
        <mxCell id="Q33X_0vtCbviZvREUbf4-30" value="&lt;font style=&quot;font-size: 22px&quot;&gt;s&lt;/font&gt;&lt;font style=&quot;font-size: 18.3333px&quot;&gt;&lt;sub&gt;1&lt;/sub&gt;&lt;/font&gt;" style="text;html=1;strokeColor=none;fillColor=none;align=center;verticalAlign=middle;whiteSpace=wrap;rounded=0;" parent="1" vertex="1">
          <mxGeometry x="480" y="430" width="40" height="20" as="geometry" />
        </mxCell>
        <mxCell id="Q33X_0vtCbviZvREUbf4-31" value="&lt;font style=&quot;font-size: 22px&quot;&gt;s&lt;/font&gt;&lt;font style=&quot;font-size: 15.2778px&quot;&gt;&lt;sub&gt;2&lt;/sub&gt;&lt;/font&gt;" style="text;html=1;strokeColor=none;fillColor=none;align=center;verticalAlign=middle;whiteSpace=wrap;rounded=0;" parent="1" vertex="1">
          <mxGeometry x="720" y="430" width="40" height="20" as="geometry" />
        </mxCell>
        <mxCell id="Q33X_0vtCbviZvREUbf4-32" value="&lt;span style=&quot;font-size: 22px&quot;&gt;a&lt;sub&gt;0&lt;/sub&gt;&lt;/span&gt;" style="text;html=1;strokeColor=none;fillColor=none;align=center;verticalAlign=middle;whiteSpace=wrap;rounded=0;" parent="1" vertex="1">
          <mxGeometry x="210" y="660" width="40" height="20" as="geometry" />
        </mxCell>
        <mxCell id="Q33X_0vtCbviZvREUbf4-33" value="&lt;span style=&quot;font-size: 22px&quot;&gt;a&lt;/span&gt;&lt;span style=&quot;font-size: 18.3333px&quot;&gt;&lt;sub&gt;1&lt;/sub&gt;&lt;/span&gt;" style="text;html=1;strokeColor=none;fillColor=none;align=center;verticalAlign=middle;whiteSpace=wrap;rounded=0;" parent="1" vertex="1">
          <mxGeometry x="480" y="660" width="40" height="20" as="geometry" />
        </mxCell>
        <mxCell id="Q33X_0vtCbviZvREUbf4-34" value="&lt;span style=&quot;font-size: 22px&quot;&gt;a&lt;/span&gt;&lt;span style=&quot;font-size: 15.2778px&quot;&gt;&lt;sub&gt;2&lt;/sub&gt;&lt;/span&gt;" style="text;html=1;strokeColor=none;fillColor=none;align=center;verticalAlign=middle;whiteSpace=wrap;rounded=0;" parent="1" vertex="1">
          <mxGeometry x="720" y="660" width="40" height="20" as="geometry" />
        </mxCell>
        <mxCell id="Q33X_0vtCbviZvREUbf4-35" value="&lt;span style=&quot;font-size: 22px&quot;&gt;r&lt;sub&gt;0&lt;/sub&gt;&lt;/span&gt;" style="text;html=1;strokeColor=none;fillColor=none;align=center;verticalAlign=middle;whiteSpace=wrap;rounded=0;" parent="1" vertex="1">
          <mxGeometry x="280" y="530" width="40" height="20" as="geometry" />
        </mxCell>
        <mxCell id="Q33X_0vtCbviZvREUbf4-36" value="&lt;span style=&quot;font-size: 22px&quot;&gt;r&lt;/span&gt;&lt;span style=&quot;font-size: 18.3333px&quot;&gt;&lt;sub&gt;1&lt;/sub&gt;&lt;/span&gt;" style="text;html=1;strokeColor=none;fillColor=none;align=center;verticalAlign=middle;whiteSpace=wrap;rounded=0;" parent="1" vertex="1">
          <mxGeometry x="540" y="530" width="40" height="20" as="geometry" />
        </mxCell>
        <mxCell id="Q33X_0vtCbviZvREUbf4-37" value="&lt;span style=&quot;font-size: 22px&quot;&gt;r&lt;/span&gt;&lt;span style=&quot;font-size: 15.2778px&quot;&gt;&lt;sub&gt;2&lt;/sub&gt;&lt;/span&gt;" style="text;html=1;strokeColor=none;fillColor=none;align=center;verticalAlign=middle;whiteSpace=wrap;rounded=0;" parent="1" vertex="1">
          <mxGeometry x="780" y="530" width="40" height="20" as="geometry" />
        </mxCell>
        <mxCell id="Q33X_0vtCbviZvREUbf4-42" value="环境" style="rounded=0;whiteSpace=wrap;html=1;fillColor=#fff2cc;strokeColor=#d6b656;fontSize=21;" parent="1" vertex="1">
          <mxGeometry x="154" y="1072" width="120" height="60" as="geometry" />
        </mxCell>
        <mxCell id="Q33X_0vtCbviZvREUbf4-43" value="Q网络" style="rounded=0;whiteSpace=wrap;html=1;fillColor=#dae8fc;strokeColor=#6c8ebf;fontSize=21;" parent="1" vertex="1">
          <mxGeometry x="434" y="1072" width="120" height="60" as="geometry" />
        </mxCell>
        <mxCell id="Q33X_0vtCbviZvREUbf4-44" value="" style="endArrow=none;html=1;exitX=1;exitY=0.25;exitDx=0;exitDy=0;entryX=0;entryY=0.25;entryDx=0;entryDy=0;startArrow=classic;startFill=1;endFill=0;fontSize=21;" parent="1" source="Q33X_0vtCbviZvREUbf4-42" target="Q33X_0vtCbviZvREUbf4-43" edge="1">
          <mxGeometry width="50" height="50" relative="1" as="geometry">
            <mxPoint x="314" y="1122" as="sourcePoint" />
            <mxPoint x="364" y="1072" as="targetPoint" />
          </mxGeometry>
        </mxCell>
        <mxCell id="Q33X_0vtCbviZvREUbf4-45" value="" style="endArrow=classic;html=1;entryX=0;entryY=0.75;entryDx=0;entryDy=0;exitX=1;exitY=0.75;exitDx=0;exitDy=0;fontSize=21;" parent="1" source="Q33X_0vtCbviZvREUbf4-42" target="Q33X_0vtCbviZvREUbf4-43" edge="1">
          <mxGeometry width="50" height="50" relative="1" as="geometry">
            <mxPoint x="284" y="1112" as="sourcePoint" />
            <mxPoint x="434" y="1112" as="targetPoint" />
          </mxGeometry>
        </mxCell>
        <mxCell id="Q33X_0vtCbviZvREUbf4-59" value="" style="edgeStyle=orthogonalEdgeStyle;rounded=0;orthogonalLoop=1;jettySize=auto;html=1;startArrow=none;startFill=0;endArrow=classic;endFill=1;fontSize=21;" parent="1" source="Q33X_0vtCbviZvREUbf4-46" target="Q33X_0vtCbviZvREUbf4-58" edge="1">
          <mxGeometry relative="1" as="geometry" />
        </mxCell>
        <mxCell id="Q33X_0vtCbviZvREUbf4-46" value="经验回放序列" style="rounded=0;whiteSpace=wrap;html=1;fillColor=#f5f5f5;strokeColor=#666666;fontColor=#333333;fontSize=21;" parent="1" vertex="1">
          <mxGeometry x="688.5" y="1072" width="145.5" height="60" as="geometry" />
        </mxCell>
        <mxCell id="Q33X_0vtCbviZvREUbf4-47" value="" style="endArrow=none;html=1;exitX=1;exitY=0.25;exitDx=0;exitDy=0;entryX=0;entryY=0.25;entryDx=0;entryDy=0;startArrow=classic;startFill=1;endFill=0;fontSize=21;" parent="1" source="Q33X_0vtCbviZvREUbf4-43" target="Q33X_0vtCbviZvREUbf4-46" edge="1">
          <mxGeometry width="50" height="50" relative="1" as="geometry">
            <mxPoint x="554" y="1092" as="sourcePoint" />
            <mxPoint x="714" y="1092" as="targetPoint" />
          </mxGeometry>
        </mxCell>
        <mxCell id="Q33X_0vtCbviZvREUbf4-48" value="" style="endArrow=none;html=1;exitX=0;exitY=0.75;exitDx=0;exitDy=0;entryX=1;entryY=0.75;entryDx=0;entryDy=0;startArrow=classic;startFill=1;endFill=0;fontSize=21;" parent="1" source="Q33X_0vtCbviZvREUbf4-46" target="Q33X_0vtCbviZvREUbf4-43" edge="1">
          <mxGeometry width="50" height="50" relative="1" as="geometry">
            <mxPoint x="564" y="1097" as="sourcePoint" />
            <mxPoint x="724" y="1097" as="targetPoint" />
          </mxGeometry>
        </mxCell>
        <mxCell id="Q33X_0vtCbviZvREUbf4-50" value="" style="shape=image;verticalLabelPosition=bottom;labelBackgroundColor=#ffffff;verticalAlign=top;aspect=fixed;imageAspect=0;image=data:image/png,iVBORw0KGgoAAAANSUhEUgAAAMAAAABTCAYAAADJLgjqAAAKDklEQVR4Ae2ZjZEUOwyELwViIAVyIARiIAUyIAMyIAIiIAESIANy2FcfhV41zc5Ytmd9szVy1ZVndm39tNSyvPdyq1EIXBiBlwv7Xq4XArciQCXBpREoAlw6/OV8EaBy4NIIFAEuHf5yvghQOXBpBIoAlw5/OV8EqBy4NAJFgEuHv5wvAlQOXBqBIsClw1/OFwEqBy6NQBHg0uEv54sAlQOXRqAIcOnwl/NFgMqBSyNQBLh0+Mv5IkDlwKURKAJcOvzlfBGgcuDSCBQBLh3+cr4IUDlwaQSKAJcOfzlfBKgcuDQCRYBLh7+cvwwBvn//fvv48ePt7du3FfUnQ+DTp0+39+/f375+/Xr79evXodYvJQAOkITv3r27vby8/P/HO5+TpEcPZAJe6IMAP378OFpNyWsg8PPnz1skcsSC+cOHD7dv377t7mZN7Hnz5s3t8+fPu+t7vlxCAAzG8HBibyZZj2A5MgA8dJH4ELDGWgQ8DhEPnymAewMCKREomkcUsocSAKO92uOoMp41ThD2zJCAvaoXnTPy9gJT320j4HGIIhSx4HTWwvjly5dtYX++IXdiD/NsUXsYAWBnGArbed5rcVivVQG2jwwHfRagERtqz+13wdEitFXUSOiIe/Z+5rmlBbUX+4cQwA0k+fmsNajUAQZzZo/L1H6fFqjG6yCgcdhK/rBsJOaaY9n8Cn06H04Ar8A4t1f51RitBuzrTWCO0AAT0Gu8DgK0tBEH5lYh07U9J/YR8T6cAHrxxLGeGzvkUTCoItnBXm25sqTLyq91OQS402kcWpdbpGrMe/KFvdpmZe4Q7sWhBMB5dQYgSMyeoft5zg5tn3qIk5Vf63IIaByIHznRGhrzXgJwYsT+oXxrGdfzvTs/xEj5/0CWAH5yzFyKevyttX8j4AUwU/2REAnM3EsA9nN5Dhk9LdRv3X+7MP7mzo+w8bdBAwTQXhC9swNfCIRe5AJg5PM5wUVvpsLN2qP7ae3QrUHnmc+07Ys1rf5bZc8+g1ngxJzRzRrdM0IAbbt77375HqOBjhqBQ70X2BCvYPCcGdoHEviZ4UF0e/x9Vl/WVhLlHiHdHn4+1n8Y7cmHML5/b33rOydlaz3f+w8fSuLMfta4HxnihexchsXqnVmdB9QeI0KsO5Jhs7c/vUdg6GbW5KfS864VHp90DX7O6FPde88kCfZEsoI1euN+xaynYKxr4ed4s290gE3oZc4WQMdzhADYrLp7Wu9xjwUpd54AjQyvBpnLrO8ZIR62kkSaZHuJrUFTgoz43NrjSbp34mjlzyShy2bP6HACZuPgp9qofpXT80/UcY/FUk0IQNwLkmz759Hl8N4avqe1fut7T4atdXwep84o0fdk63dOylZgHQuKw95wn2cIoAmInJG/GTzJudDZI+cQArjze9VzLyAupxVAZGnV63Hc7fBkeHRld/333jWonE4QYm84AVrr3ecZAkTyzcyjhRNM3Pc9nPS7QwigrQMAjCaPg9cKII4oaXgeHd7G0T9n9I/qa+0DQ8WDALeGEmamGLT0+PeOXcZWZHjS9vTuboPLgtyZMU0ADxRkGBney7cucKGDQEeizBAAeUomZCI7C2TYc9SsyZyp/ugFs8Bippr2+sCJH3qZs5g53qOFE3v9NMvaME0AVzyahBpwQMxWAwV+VHcEnIqvSRSykZu91IWs2VlP1UwyY3vYyzzaho7Y7dU3c3K6vbMnlufhMgJ45W5d1LYA1oATwGw10KDPEgDbCIz/TyN0ZI/2LR+zn3swM8nsVTiLX9amvXVavIhjZri92Z9Nt2Q7ZssI4OwfSRIHoyeRIzmZe/ZtARmfA+C90yBTjUPG6OyYZk4ffA8sZqtpr92qOxsD/fECu2cJ+9QE0D4eMLLsJVC6Nwt+T4D9923sy1TkHh2+1pPDv/d3v4SOnsIuN/veSwCSPcjKfETcvIhmc2j6DuAtUO8J4Ib3gtELfjaous4T7NEVVn0iQVrD12fvTy252e9Vf+aE1JYJ/7LJumePn5pZmW1097TeuX33VB/6be/9M8e9mqTgZ/tP3Z999ntBdt/IOvWpRQAPPOt7MRyxUfeova0C+Ijqjy2Og9q39zxNAIQDevxlf75knx/1I5Vr1PEAJYIX71uzn3Rb6474PGwKTLdkxunpbdrW+kd9rva2TgCP+WzvHz6p3J5CeAgB/EjLVCDf0wIuHPXZEzN79IWcSLKWzZpkLYCRFXKZe3/h0GCyHx99RPIjW6tqTwFCpt6hRls7LUKQYWuEzYHNSMHbkq0/WIBfdhxCAA0Azu0FgbbnqOTHSdfdAypkiWDsgYbNCnCGrCGXeS8p7gVKyRZ4BkHxN9qxwFnXuy6SjnX4cG9o9UbXyHDCY6MPsNZ2N4Ohy9h7V7x7cmDM4zuWOLsBXSsXoLBGKw5Gt3rGO6r++UiTcy+RfaMmDrawV08QkgYfVD5B3Eomla8B8aTUdfeeka/JorLiWZNaK3DYp0QB8yCQ6zuCAMhUOdgW+rBD7cP+o5Pfu4DQ7b7eez+MAAgnwVuBiwACmCbbPeOyn2kioz87opKGTa2ZwN6rbvf0qaxeAiDPC4rK0+RnrZ5kuo5nkm2PsJq4rB8d6MAu16/vxEaL4qgu36dx7G3jxj12K/68AwQJCbD3yEBAehi6oeavj9GpQPeATEJjL3bds5mg8l2PTIxTe9g/MkhsTVBsgRj3BlU28GZGZ6bAqHz2zQzigB1KBGSiA4z5/hEj/AZz9PSMwwngyv342wqg7+t9J+CRdAD+msMr8qN8PsJHTZ5Roh5hx6gMPSnxpZdkDycA1T4Sk7mnR+8BhUquwcxUvx75PWs1KL1Hco+e2bVgprF5TcxGfdE7JcW2dzycABikRgJ4L0uzTulpwzH8WkPbit7WaaXNihd99LMN2p0g8Gi8lxBALykY3Nun9QRGk+81gqpBOXPrw8kcJ+Yztj7aWeDH6L1yCQH8qOVE8FOA971LXpYEIScqw8ok1N5/pd4sNrEOjJ49+cN+4jyD9RICALyfAtwFggS0CST/DJMjuMxOAipc6NJ1j3jmBDpz2xM+0/68xgkZ+kdnsI3kZ55JfmxYRgBPyqjQMZM4RyYpsvSXIU6dWbBGg1b75hGgi6BoRr4Qz9G2R61ZRgCURlLqpRinHpmYtCV6L0A3YNZ4HgS0kFH1R37t2fJ2KQG2jFjxOUQASAhQ47kQoFWjiFEoj+wSQOEyBHiukJe1qxAoAqxCuvScEoEiwCnDUkatQqAIsArp0nNKBIoApwxLGbUKgSLAKqRLzykRKAKcMixl1CoEigCrkC49p0SgCHDKsJRRqxAoAqxCuvScEoEiwCnDUkatQqAIsArp0nNKBIoApwxLGbUKgSLAKqRLzykRKAKcMixl1CoEigCrkC49p0SgCHDKsJRRqxAoAqxCuvScEoH/AH8peAopXzP+AAAAAElFTkSuQmCC;" parent="1" vertex="1">
          <mxGeometry x="554" y="835" width="99.47" height="43" as="geometry" />
        </mxCell>
        <mxCell id="Q33X_0vtCbviZvREUbf4-51" value="" style="shape=image;verticalLabelPosition=bottom;labelBackgroundColor=#ffffff;verticalAlign=top;aspect=fixed;imageAspect=0;image=data:image/png,iVBORw0KGgoAAAANSUhEUgAAADMAAAA2CAYAAABqbKGZAAABw0lEQVRoBe1ZbQ2EMAzFAhqwgAe0YAEHKEEBCjCAARzgYZd3SUmv2Y+jG91C2oTsg23te69su1wTXmTNi7AEB1Ormq6MK2PAgKeZAckqF66MijaDSa6MAckqF66MijaDSa6MAckqF66MijaDSa6MAckqF66MijaDSa4MkbwsSxiGITRN8336vg/7vtPrqzzPM8zzHPCexrZtG7Ztu8bkqKiUQcA8MAoQZdd1P3FhLPr4GKrHgP9Mvtm4DQZqgFU8qMNQUoAoKUjZz8egnttur4hAkVoUMAXEA8U7POiDKpRO67peoLFGbrsNJhbAcRxXkFAMbZRIRXwv3Cg98Q3ltixgwDxXBgEDjASSO3i5XhYwYJmDQV2moXT8RDsLGL49A8gTKfQP+CxgkFKkTIn0IqDJYGjXIjDTNNHa5mUyGHmW0DZsjiSE9D+bxnG8UgzqlLRk7/yq8sRBeIecJDA4R+hbQVlqFyPASWD49QRg0C5pSWCwc3FlrE98SVwSGH5Yyqu/dGTRTgLDVcGuVtrUYOTlkn7blASkBiMvlyUulpI4NRi5UA1tB1ODCrEYXJkYKzX0uTI1qBCLwZWJsVJD36uU+QAtBJjYFwvucQAAAABJRU5ErkJggg==;" parent="1" vertex="1">
          <mxGeometry x="848.5" y="972" width="37.78" height="40" as="geometry" />
        </mxCell>
        <mxCell id="Q33X_0vtCbviZvREUbf4-52" value="" style="shape=image;verticalLabelPosition=bottom;labelBackgroundColor=#ffffff;verticalAlign=top;aspect=fixed;imageAspect=0;image=data:image/png,iVBORw0KGgoAAAANSUhEUgAAAGEAAAAzCAYAAACHQGZfAAAFGUlEQVR4Ae2Yi1H0OgyFtwVqoAV6oARqoAU6oAM6oAIqoAEaoAN6yD8fM2LOKn7IcbLJzbVmdpxNbFk6Rw8nl2nI7ghcdrdgGDANEg4QBIOEQcIBEDiACSMTBgkHQOAAJoxMGCQcAIEDmLA4E97f36enp6ff3wH82NWEx8fHXxw+Pj4W2dFMAuDf399Pl8vl9/fw8LBo47Ms+vn5ucIDbFrJCJPw/f09wbiBz/Xn5+dZsOz2AywISMOHKgFBEQmR8PX1Nd3d3f1t8Pb2FtH9v5zz+vr6hxNZAXY1qZKgBEBERGlt07M/p2RbRoAZVaQkRRJIJ82A1lpX2vjsz5QIylSpNBVJoK4Zoy8vL2fHbXX/ovhlSaDRGAFkQ4nJ1a0/iULKkFaSXCnPkqDHUJrNkGUIPD8//wUzJ8qUJEmg9lsWMI4sSEEXu0c2KJapJp0kQWsZ10P6END3h1RvnZFA1CtzdPkhfQjouwM9wsuMBF+KUunjldT+owND9I3biMYo7lM7eQlcY7+aPfqcAwh7aw/kmnv6RcDm5Jqr6vTXesjBb69jRgLpogB5ha3/NQpMb2nE2VsIQKSCwttGOdbyvNQ21eu/OMxIUMO47hElgIjnv0Y6QOgcDL1F+SPb9ehI5LOvHUAYAUqB47rnY6Vmmg+0GQlqnJ/cQgiOqK4SuEqEktSyX3SuLw0lHzUDICHVVKP7loJ7RoKyDzhLxTtb0mOHAaJlS/GBUTv5aXCAS89nGyUBXSpX/4jCrUjYOsLVqdw1UW/+kaWQUhJPQm1+iy6de0WCj96eTKDem8OMtY9YatQW10sCTEnrzVJPqPq4GQls4lMQRyB6D1FAI1mAjfqSVeodEX92I4H0VUcsMyDHn5UjjvTM0UNCBFBsN3sZSweLiF1hEpakbM0AnNF3D3Wsp9zV9tXnvsxGAGWO2trb0zQT0aty/W+arjZeEySASGVFJCrV4CXXPgojWailtLcfYLPqayKhdoRbAkjqJSgSmUv2sjX+vG/3c6M/VKyBg5LAtcosE0qTdWHPtXdyjUgr2aM++ShMrfPz/WeG1JraPe1JntQZCb5+15QvfX6rfbDPg1qy2ZcuSIuUr5JO3+Q9qTMSfENqNcAcLhnFM/+1tja/57nZBKClTDDffcns2Zu1/mDgMZ2RUGOtZpA56jfy69RRUrUk6DK9jK3fcHxPSH1+MALQradEDhO9olmf8nVGAhuq0b5+lQxSxkvrIFpPSpETkpJAZLeIEo4e9rYgAXADyQDX+X4vyGIePkSl5muSBF8qohuq8TgLERBjgh50q1FERkR/Dwno18aouuxagdW+YPYpWRwkjETzLTf6LE6tS5KAQjYyA6PvCxZRtq424nj0JUh1+ejMAaD3rdyoHrtWAlijGW1zbCRrI0Fje+tLWs7uLAmaDRYNprg0AioZweZs6iMQh3mWqsslvQYCI+uXCOBik+nCFshJCYFntjOyp2Z1ao2/Bxa2F2NufZYEFKrBRPle4iMzB9xe9uX21d5awq9Igq+lrdGbM671vpaSrV/sWm3Lzdf+6MudX1Mkgck0Ek3LVGPxStf+rxm5VyC0+KRBA3Y1zKokeCKobbB8K9GI+i+UIT1ZRU9RIRIAnCZDWlmjITpzjWYtgrQXHJ0AbPX4RE9RYRIMWMDQ4ytkbCnoP3oJUjy4brW3mQQDHDLo/qU3Y5t79pFAAYdW8A2XxSSYgjH2IzBI6MewW8MgoRvCfgX/ABOY/ajbbl1uAAAAAElFTkSuQmCC;" parent="1" vertex="1">
          <mxGeometry x="594.51" y="1052" width="58.96" height="31" as="geometry" />
        </mxCell>
        <mxCell id="Q33X_0vtCbviZvREUbf4-53" value="" style="shape=image;verticalLabelPosition=bottom;labelBackgroundColor=#ffffff;verticalAlign=top;aspect=fixed;imageAspect=0;image=data:image/png,iVBORw0KGgoAAAANSUhEUgAAAD8AAAAyCAYAAADrwQMBAAACHElEQVRoBe2ZAc3CMBCFZwENWMADEtCABRzgAAcoQAEGMICDedif709ec1lGaRl0t7RNSGFbQ797r3ctdEPFrauYfWjwtarflG/KVxiBZvsKRf9Hbsp7UP7xeAxd14XXfr//+bTcKH+5XAI4QTgcDvXAA2uVv9/v9cBvNpsAv91ufw7OF7iw/fP5DOCof71e64EHVpbHAX3f1wN/PB4D/Ol0KgLuxva73S7AswRKtcXXPBaX5UuUNxvYxeFvt1uAL1HeXMGzxlG+VHlzBc82tmR5+xo8JYpMjWpat+pJYoCdz+cBa79qGl+qvNl5fLTmOYTYDC3gWF8yi1vA2PtseBSyW1HUtcpyn882OEus5xi07mXDY2MpHIOyQcLaHls2vBIUASAQsaZMXmqvHpvL1L1Z8F4VnQKdupYNPz53e1V1CnZ8LRueXZjWvHrsvUSpGsPkfs6G5wvsEVQBoAK8ywG5k/v18x/BMykc8Gpzwz5gDe1jeOCwui191gVrCMAseKnL7s1uaghCbA+gcUv3X4EXxNoqwVfhWQayPr33BJgEr/KWAmPtn/K8XLNEnwSvpJbyM5M99PAvjOeWBG/387EsPq7/Ho+xVowkeKsm74G0YARE7tCa9255gvAWfpzEBBfrvdtd6r+F14P8QIGaLAGb1AgCbuA60NYRGuu1T4b3CjBnXg1+TvTWPLYpv2b15sy9KT8nemseW7XyfywnGSh+gp0zAAAAAElFTkSuQmCC;" parent="1" vertex="1">
          <mxGeometry x="701.25" y="1012" width="50.4" height="40" as="geometry" />
        </mxCell>
        <mxCell id="Q33X_0vtCbviZvREUbf4-54" value="" style="shape=image;verticalLabelPosition=bottom;labelBackgroundColor=#ffffff;verticalAlign=top;aspect=fixed;imageAspect=0;image=data:image/png,iVBORw0KGgoAAAANSUhEUgAAAMsAAAA1CAYAAADvYx9aAAAIWUlEQVR4Ae2ajZHUOhCEL4WLgRTI4UIgBlIgAzIgAyIgAhIgATIgh331vXpNdc3Z3tGfd8tvVEVp1ytbPa3u0cjHy61aMVAMpBh4SY2qQcVAMXArs5QIioEkA2WWJFE1rBgos5QGioEkA2WWJFE1rBgos5QGioEkA2WWJFE1rBgos5QGnpqBT58+3V5eXv7++/nz58PwllkeRn1NnGHg9fX1r1Ewza9fvzK3LRmzxCx//vy5ffv27fbx48d/+yXI66GXZwBj+K7y9va2GTPX2YF+/Pix+fusi1PNgkm+fv1682zw5cuXWVjrOf8zBki4bpbv37+/YwDNffjw4e84Pq8yzTSzUEs66M+fP99+//79Lri6UAxkGUBDMgvaOmroj0pG49lpMNLMNsUsOF4g2VUeeQibSU4967EMePKlYsk0xkmL3D/zjDNsFjcKzp7t5gxBNeZ6DFCVSPT0LbpyTZK8Z1U4Q2ZhB1FAM0Fdb+krolYGOHdIW5Rjrc0NMyuJd5slHqxWHapaSarx12CAF0MyS28p5X+jmfGiqdssXhvuvdK7xrJVFI9gQIf1EW1RflHxjJpO8XeZJdaTdaAXndXPYICqRQKnnBpp/kZtxHhg6DKLb5FkgGrFwEwGdBa+97o4M2dM7COH/S6z+NbGH45GG9mDDOCvCpVZMCMZgbLv7HMRGY74mF946PnOdb2hoaaGkxl18RGX8ORY4GarngcXfKmUATP4zqgAECNzO05xBwaus9bwtydccIKd58xozsPIGjWbxd9SQMJewJkgWWgPRKQe9SPzZTBpDAvlSWELE7/7uFmLKwzqj3iK2ZexW0kH/FvG0hwzeuLf4mnvWs9brh6cjos1623NZvESLC5UCwiyn4uRjOM7B7/z3c00Ml8WG/P6WxQWmkV1oe2J1/Fn57s3jt0Envin+p3eBShs8bqP4fPKFgXJd09sYPQx4FE8K3HxbJV14kN8tc7bzKCLF1H1NifuyARuqjMykZcPCHSPWK6LfPVgnd2YB0wRh+ak5zfhgUuVW14F8IxVzdcIPEcm8HV3M63Cpuc6X71Hh2az+KQE3ttclPeeo93saBF6cfh9vpASof8ePzsXJJGzGiLT3Bia7/RgiIZVcrvH8Qj2mLmPngU+sB8lyKP7e39jPnHWm3SbzKLspUlHxOtm6QXfS9zWfS5A4suISzzQjxwct/AcXYvixBCYJRrl6Bkzf4t4ztwxsnG43np32SazRFL43tviuWDEeL0Y/D4MK/FnhBfNdSb+uAOCO5ZpHtvqzzGJbu1wqzHce76bBb56WtNdCEKCoh8xSzQezyM7PyI7RuFndhU/D4D9zGwaFz6Dt0ccLfdETH52annOqrExwfTM02SWOOGIWQAbzYfoyOpnLz4HPubWv4zwdY7inrPrbzgS1swu2COM1ntIcjofCRs9Jnrkrqc4onZ1vaV/qFkAiuH88CWiIf4skj0rZoXvmM88c8WS58yz0j1hYRhPIlpL+rMTYMR6CbMQFCTHYCCYrHmGYXxRM6/DYwl55nkl7saju3sU1YzvYNraZc5MKjGOqK/4e+Z7086yeqEofyLJ2UyfCXZrTMzUmQwYX06cYWhh9xcRmPyZWyxvwXtmYnFuZvDWxHbMqKuyWhTjSoJjTPfMEsez+53ZvPyjfHz2FpPR6uS3x4eX2r1JZsgsvX8J3QtI1ynLvDS6J2Dd19NH8R/NBS4/XIMxU7b14Nq650xetubvvRbPMb3PGbnPzdKbZJrMAtgREUuYR4IUIV6OZcbrvtZemBTX3lwIFUwQ7Tvf3vhWHJnx8XX1iv+LlsGhMRKgvu/1EffeuJXXPcn1Jrhms7iIWx2KsLLZ2IO7t4O5eHk+ws62WCYQX2wyCpg4V3n9mxVsrN+z9zmWmKFb4vTn+GfneSt2Hxs/K8HcO7N57Mx3doMnYaW/p6c9fM1mcaG0Bq5MBOAjguOLhHt/95AJRQi7RUtzwYhMCRFR65wggft4n0um2jpjZXewI9zO36za359J7Nnm8RxlanGitUE/ZzfHCo4j7R1hy7Pz31MQjAJvndhFxmdE5UYgiCj8TJkT73EBHwWv3+L9Hp8+uwF0jV743FRbf/uIC6b7hCHT+7yzRNdrFt8twIVhnHdMAideibDmSkKZeGeN8R0ZDL2t2SxM5KLPbmmQ5Iud+Zx9dhS7L1qGmJj9IjY3Cs+LAtN4sr12nzjvqFni/RFTnC/7PcaSvc8FqPiPekzjiTE7z4xxbtiRJNNlFieqtc5FTIibRfIgIBoTch2TtBAbzdJyrxYDwxCXSi6wQOzWs9gBXWTEAeajrDkq9hhjbymheNV7HK2lHdwQNzzxHE+irCe88NteAhGGlT08uYlHeOsyCyQ5gNZMPpuckQWfjWXveVHsWybcu3fldV/Hkay7EuPIs4lJMaKTkdZlFib03WUUxEgA3KvdAFJmlSejmOL9vmjPIsqY9J7FwJG73u8xvtGk3m0WSg7fdh+11Xp501oS9i5C633OFZw9iyh9tyP5Xa35nxRmxNdtFoh1oT5CBIhQuwpGOTozPFIIWjQ4GqmZZ8bgtfyz7HQz4+MspfJrljaGzEJwlD2zQWVJ01llFhnZeVvGKXs/k1F8p7uiUVyTM3kfNks0DOBGa8OsGCn9yNrPuqMQByUXpn6WHUXcUpZg5Ks1JScSOFXHTN6nmAXCMQhG0S5DxnqW2vxqgqh43jOA/qgwpD8S1OwkOs0swAccznbTXDF7vV+quvJIBnRu1W6y6mXTVLOIMEzDAQun01crBlYywC5COb7KJMK+xCx6ePXFwJUYKLNcaTUrlqUMlFmW0lsPvxIDZZYrrWbFspSBfwCGAXGVuMB6wgAAAABJRU5ErkJggg==;" parent="1" vertex="1">
          <mxGeometry x="568.5" y="1122" width="114.9" height="30" as="geometry" />
        </mxCell>
        <mxCell id="Q33X_0vtCbviZvREUbf4-55" value="" style="shape=image;verticalLabelPosition=bottom;labelBackgroundColor=#ffffff;verticalAlign=top;aspect=fixed;imageAspect=0;image=data:image/png,iVBORw0KGgoAAAANSUhEUgAAABoAAAAqCAYAAACtMEtjAAABc0lEQVRYCe2VDc2EMAyGsYCGs4AHJKABCzjAAQ5QgAIMYAAHeNiX55KSbuzvILlcvqzJZWNsfdruLVeZL1n1JY4poNuVLqUrpTsr8FtiOI7DTNNkuq4zdV2bqqqsX9u273fjOJpt284s9CSZ0bIsXucuTJ5fr5f2f86joHVdrcj7vrci3vfdzPNsBcIen0VBlEQiDTnAqQ4IsM+iIIEw4ixmTdO8gyJLn2WDQpH6nPrWoiCtMOYhRfkcu2tREHLV5QOGzO9YFIRDRKBhzJEwsv/EkiCckYUuo4BpYJo5x7JAOEJNOBaIjKgtB5YNkqiRuZtdrMfk3McgDpIB9yRZMYb65xGIw4hBg1INfclIJJ06SFaPQPJ9S/ULzatBqWa+ZCSHuYOYmnR/hf4a5H4YLZAbJdLlLjSQkroyT5X5AnIvWLILjcg8B3IBsUD0fKmHYTDclytjnsmIPTpTzsbMKl1s49N3BXS7gqV0pXRnBf6fGP4AEIqFn6yu6GcAAAAASUVORK5CYII=;" parent="1" vertex="1">
          <mxGeometry x="348.5" y="1122" width="18.57" height="30" as="geometry" />
        </mxCell>
        <mxCell id="Q33X_0vtCbviZvREUbf4-56" value="" style="shape=image;verticalLabelPosition=bottom;labelBackgroundColor=#ffffff;verticalAlign=top;aspect=fixed;imageAspect=0;image=data:image/png,iVBORw0KGgoAAAANSUhEUgAAAS4AAABPCAYAAABVnygIAAAPxUlEQVR4Ae2ci630xBKESYEYSIEcCIEYSIEMyIAMiIAISIAEyIAcztUn3bqqW5qXvfZ67b9HWo0fMz3d1d01j91zvvuqUggUAoXAzRD47mb6lrqFQCFQCHwVcVUQFAKFwO0QKOK6nctK4UKgECjiqhgoBAqB2yFQxHU7l5XChUAhUMRVMVAIFAK3Q6CI63YuK4ULgUKgiKtioBAoBG6HQBHX7VxWChcChUARV8VAIVAI3A6BIq7buez5Cv/8889f33333f8+f/311yOM/v777/9nE/Y9sfz999//Z+NPP/10ipnPRO8UqErouxDIBCcZ7l4yobHxieX333//P+JiEjqjFHGdgeoDZLLK+eWXX75++OGHt1qTCX7WjP1Wo76+vjKhf/vtt3er8JbxVlbLf/7559ePP/74BQb//PPPLr2KuHbB9p5OkMevv/76RfL61gkyIUD++OOPwxVhTB+Psd654skEP8PGw0FbEJgJvTdhF4ba3ASM0Q9fK864Jvb+/fffTfJ8tYyMVkkfM0FuHaeIq4Xsxc+YkTyIFEytmnZHEAuBQ6BqDOReQRoEsetwsSsOG979iY2fUJikXC/h7jVEtBpfkLH3HcUP8caKS+0Zh7hfLUVcq0i9oR3O9MTFqax+CADNSNTce8BtCa6WGchk6a4g2jMDtuTueeZ2PWU7lQkNYVxdiCH5mxqfi6AyDvGJ4m+kt8skJlf6MKbHHpPnSiniWkHpDW2SPAgmltS9QntP8tXgSnk5LsF3VckEXwn8q3TdMq4nNEl6dXF9iLOez51Qem3cFp90VwmI/hmDK32LuBz5i67TcaNgchUzAEdE5/382s+zVgLG+x59zVYB2/mQBE8p4Cq7VgjgTLtZ7UkX6pE+vpXjDGxWnOi2nuFlDoz0Qo8irpk33vDeZyqCaXWLhLM9CLfO5n5IurXvGbB4gmvbcsY475aphGb7dGUhXtBBMTMjIycuVvSj4rE4k9uTg8+lG3qOyK+Iq4fim577KgOnsQLaUpQUcvhq3wziTzh3kS1bMVi1+Yp2ntCrE9JZevrEQLyMiAEdnLhoPyoex6/Ekus4IsCxNiNN690hCPg5FcGx1em+1dvS31d5n0AUnuCzbcIhwL9JiCf0jCjOVImxiQ99VrbiW4hLhDNbmc1sTD17+VDENUPyxPckqAKJejTD9NTYQ1xOEoxLcl1dCFB0eTXwr7Yjx1fyrxBF9j3y3icqcF4hUelOez6jojg8YtJxXXu4dbVJpaV8zs4oSsLpPYHHYD1gaC8j6TNrPwKLMTinYXzkSAdqxhiB2LNPMtJO9NC7rFttR3rrXercm13UvlU7lui1IsPPto44d8EP4Jm6oA/yeU5MMG4vLtCbrSJyPqGgDzq7jxSrjrHa9M7ksJl+3ufd9uWxwOoE6XmNL0dFODDWq8VXqYzbktnVhgAj8XXugAA+CiyEtQJV7QhYdybyUpbaUmf7kfEEwWhsl0u7XvEE9j44oQUWNngg06fXtjemnqdzwGZPSRxWEsT9gP6vlNkE4LgKr1fGO7svMZuYpg3ck9Se2EfrlToo7/aMQx67DaMJ3eV7nIzyyPscde36kqdZusSlhn7SjzAA5BlEw4fA5xk19z4gSU7Z2l5jZ90KKsYWyVDjlNRj5HQS3XXmepT82Kn2qwGQdnDvcpDXck6rXz6TLqqFRbbTPe/VlvoVG8BVssCce19R4S9v8+p4suGsmsnEY4f4BR9hSt2a7PZOOiM7jiQuJ1h8IHtG4/NOvqV+N3G5/eifZUpcLQNwLs7yIKWdCMoNJnBpjyIJWKv9iDRWkyDJaBZYGYyQSqugvwK716bVr/VMcoRVYtnqk8/QR/1VZ5u8z5UePthTHAvGHhGg+22PnXv029onY2bk3yQCDqaPLp644AuGe4vHWosEWnITj1fGb8mfPfOYQf8sm4kLECGCJCEJ9gGVTCO2zvYjgLztSCa6oKPGp56VDMYWgWqVNBt7NlYGhVams375PuWs6OUYruCSY+o+x9bzVi2C3WtnS+aRz5KEZ8mdGDIZHF3wpcfvKC9GY6efXOaW69HENBp/7zvGc/1ywptndCwZEZZCXLkWUD2So1+2HznIA2YGpL6elfEjndEDHUkstefa9daqLJ+77avXbgfjjWb3kcyUszLzO0G/QiTptxm+IzuufqcJCV8wu7vfW7ol7rP2LRmzZ0cRV+qq+N5av9u/GV/ce9lMXCuzuoOytf1stnPlR9fpsDS81TfBki5spxTUe7dWPp6TB3JnJOx9/TqDe2Xm9z4rvvHx/FqYyNejVbj3+7RrElI2UBM3s+JE9wr5z8Y54n3G2qpMx6S1VVuVs7dd5mL65eOI65VkcpD2EBf9sx8rLRyHI1eIwXXoXRPsHhh7yJBZ3mVwvTLz+9ivYu0kyPjIXpkgerhc8dxJaGW1hY5+DLF3tfwuW/f4O0njKhs9vou4FiImExIAE7gFMd0m7hCu95Q8A9DqcCbLx36VuCBKT2LJRu4eMp7pfsZ7TUrovpKgOWHsXS2fYUtLpnxCvXKUgIw8ZrnKRtc9828pa1zASrCf3d4dxOyAUQQdurUSCX22rATYPnhAr87ErlfvOgMf2XtKbgFWg2urb2a6YU8GusbIYJvJevf7XFmsYEgb2Uf97rOfLRjlNpjdw0rxVRo24uMriuOcsXRL4sIhEJWTi4yEvPgk+FuICyclMazMxivOzWRZmQhSbgbkFmIVTtR7xk5ddI9drUnjKNw0zpE1yeB4rKwSwUx9iLFPLhlrKzmQZ5dX+k84U9+euHJ2B1jOnnJWyKBccZqCUH2TGFdmZMno1RlMe8gDm0dO7Y3Ncyf0PWOPZPNO3766fkfgNht3z/ucnGYyMqlXt+czuWe9z1hbyYGMrZU+Z+ifk/OtictBhVRGM6TIRwm06gBtBbSK8VXEbMwVB+ZWcSt5pEOl58rYtPEVw9axV8fIBP/UlYljQZzMSrZf3XrN5J71PomL2BmVjK2z4mOkg96l7rclrkyG2Td8e4iLMSACglhEhzP1jOcQ2atFZEqN7C3l1eTx/lvH3qJnroy39H1XW8cCX4xKxhPtRxPnSNa73mXyz8b1hQH2KQdm/c54n7qnLmNv/VcjjNBnhYXVlvqo9hk4M7AyKNPw7M9KSNuonEkhSbeJpHylpG65ze3Jzm3Ynq3KVhxTF+mez/M+Mcv3n3AvW+Tbnk5ahSf+vfaf8jyTf7TiyoUBJHZlSaxzkrgtcY2coEBTQFLPiEtB3CODnI1mK76R01O/JMpW3+zDym+V8FxeEsoMF+/LtTDNQMp2Hnhnrewy2bZOKHnG1fKpcEe2b6WOWHknZn6vcYU393uK+o9ygDjyIxEm8D2xtUe/Xh9fsbfi5zbE5YmAE3ozgtplUI4SVKQEQD2H8Zz3CgSuZ8nbcwrPtbpDHrJGRCybNPZe0mJcTz7kIXu1+AzeI3hkZSL0fLU67qidMKFm8tlSWrjKp+Ck5BFJefscC2J5xS+pt2ONbayU9xTPg5Yf8JXin3Fejes9Orb6aCGBTq1YmxJXzmqzg9at7dNBPfkEkhMHBtGW4MKp1CIDrim00ac3Y7nTMhgTUAdT4/eILvvmPTi5PVyjo+RRswLIMXGi2qTM1XufXVtB0ZPjiYv99PUJQTq7fOx6Vd+ePjyXf6ln/ks56OU+cFm6djLybbbscoIj/kR8OdbW+8yLvcSVcvCh/EF8pa+O0n+rvd4e/YQ/NTpnGRJXGiZhBGzLQEByIGbtt8onsSWzVRNMyKSkw3jnxEDAYYfLoQ39WoXnvPf2XI/6tOT4MzAU2abcvKddj3xd5sq1ExD6rxatQFK33j2xAM5nFh97K3Gh1yimnLRomzHlYzMBihCOsDfH2ktcMxtlA7lwpP6vYEAOSy/qVgx1iSuBc0G6duXObq+xSHaCxEmEAPOZhLY9fRQAuZKRTdT09eIzrbfza2+/9ZrkIXBaJIaeIuOtcnvtc0bbIp8gAmt8gG7uB/DAF7zbIrOn58pz9wHj7in42+MBG3qTBLEgm6kZM+Nljw7ZJ+O3terIPqN75BFj0t19dYb+I11m73xBwXWrdImr1bienY9ABuzeZJxpilwlPUl7x5JY9cjmjrb5qhg/tVYdd7RrpjN2Ki6pe6RaxDVD8oL3PityfUYhQHycXoCcMfZRMn2bx2r1SeUJE8sef6zaXcS1B92T+7jzmHXO2nb5Fpjt0d2Kb+/OwugKTNjKa1Kh/lZWWxwDabU1s/txxOWzMCDoTOuKANw7JkkoB1L39vl75Xs/T359G+vvP/Xat1JP2iKCtyYukrf1Jdin+uQVvSBrP+Od+fRxxCWnK/FnALwC9pl93YnY0gpgbOXzSiFgWG3dCS8/27qrf3s+0yr4WyMtj8GVmH4ccTkAOP+uJVdd2CXyotY3L0ckbpIXgcOzTy6sFJ+0PRTW8oV8redPrbHTc3Z11f8o4sLpWjlQr4LwqUEBgbg9fs2K7MjgBjsfD/lHkOKnYlt6XYsA8abVJXHNImNLvD2KuHwLARhPONTEuT4jcc35Do4/o4Chn3tBYE/A8QysSuY+BCAon4T3rPAfRVzO4GceaO9z1716QWAEFMRVpRA4EgG2+EzA5OveSfFRxOUrhSeefxwZPCWrELgzAo8iLvbJLEFrlXDnkCzdC4E5Ao8hLg6qtW9mCVqlECgEnovAY4jLf5C4d9/8XDeXZYXAsxD4GOLiWzLIx79BY+vHATEHxbwbfWWqr/KpqxQChcCzEfgI4oKYdD7l3zSwcnIiYyvYO3TnXIv3yKpSCBQCz0bgcuLy33S0foAGUensirr3+yV+/gDJVSkECoHnI3Apca0cqLOCEnHVt4XPD8iysBBYQeBS4tI2kG1ibyXlK646v1pxabUpBJ6PwGXE5VvE0d8U+q/hW1vJ57uoLCwECoFE4DLi0n83YBs4+mNh/zV8/cwh3Vf3hcC3icBlxKVzK7aJvcL2Ue3qfKuHUj0vBL49BC4hLj9wZ0XVK76drPOtHkr1vBD49hD4WOJitaXfZrHqqvOtby84y+JCoIfAxxKXfgmvreLoHKxnXD0vBAqBZyJwOXG1zq705z1+gC/4WYlBar2fT6hd1YVAIfBcBC4hLuDUn/iwooKoKHxrKLLiHMy/UWTFpT8Bom+twJ4blGVZITBD4DLi8t9naTtI7aQEofk7rlmhFWnN3FrvC4FnI3AZcQEr5KUDeOrcArId1KoLQsv3z3ZNWVcIFAI9BC4lrp5S9bwQKAQKgRECRVwjdOpdIVAIfCQCRVwf6ZZSqhAoBEYIFHGN0Kl3hUAh8JEIFHF9pFtKqUKgEBghUMQ1QqfeFQKFwEciUMT1kW4ppQqBQmCEQBHXCJ16VwgUAh+JwH8AKe/exY+/KEAAAAAASUVORK5CYII=;" parent="1" vertex="1">
          <mxGeometry x="768.5" y="872" width="193.8" height="50.7" as="geometry" />
        </mxCell>
        <mxCell id="Q33X_0vtCbviZvREUbf4-57" value="" style="shape=image;verticalLabelPosition=bottom;labelBackgroundColor=#ffffff;verticalAlign=top;aspect=fixed;imageAspect=0;image=data:image/png,iVBORw0KGgoAAAANSUhEUgAAAUkAAABMCAYAAADgMEWvAAARkklEQVR4Ae2dCZGktxKEl4IxmII5GIIxmIIZmIEZGIERmIAJmIE5zItv4+VEbq7O/5ijuxQxof+Q6siqSkk9s71fXqoVAoVAIVAIdBH40n1TLwqBQqAQKAReiiQrCQqBQqAQGCBQJDkAp14VAoVAIVAkWTnwdAj8+++/L7/99tvLjz/++PLPP/88nf+f2eG//vrr5aeffnr5/fffX4jjW7QiybdAuXR8hwAJTqL//PPPLz/88MPLly9fvv5wzbM//vjj5b///vtu3pkH6Pz111+/0fXnn3+eEVlzDyBAXIlvxh7y4/mo8V65Qk88r86T1F8kmYjU/a0IsHOjODzRe9cQ5lUkRnGJjOkh6LuL61YgP6lwj0Mv7pDlKDa8I36aTzzZYd7ViiTvQrbkfodA7gI47vLMj00ke5LoWaL03SMF6Pq+M7Ie3IaAx0ELlWJBT2xEfL/88svUDhZcn8NHKHe0Isk7UC2Z3yHgBUIhzI5JFIkKhv7oZ4eul+tq74OAxwGCbMWTHaLHXAQ6spg5dxNlkeQoAvXuEgS8QESQM8EUiBfMys4iZfqRjEKq9j4IeBx6BCnL/BTBKWOlJVGePXmkziLJRKTuL0WAhHWyowhWm+8QkEExrDZ2KtJLYa7sSlZl17h1BP7+++/XOBCPGfE5Se7s/O+Md5Hkerxr5CYCEBME5WS1Q3R8xqS59BTcavNiYydT7X0Q8IWOz6BnzeO2s6Ai1/PlyMmjZ1uRZA+Zen4agTxm75KVH9MgydX5vnuFpHeI+bTTJeAVAY8D8Vs5Bp8hyfyIZmdRfTW6cVEk2QClHp1HIBMWstptR0nSdy93/cZz15dnHM/OUSeBlV0kGJ0hSeb7wrxzXB/Fp0uSJDmfH7BtdWdxGkdmq0J+FiGw6L2hB2dSh4/Ja3S37HIdrWtt31dtYxy26chIj97eCsVz3q+OT7/8nt0PfqLfix6/uIdAejukkX/CxXVx7cmpMepz7Mo9dms+/eou0GUfIUn/bAq9rd+iuo7ZNRirDhRX9wvciDm2ntU1syXfy7aMHffYrPzALmx/ywUjc3D2WaR8c4zxY7fxJ2QeH2GwK8fHf8tYLy9fCSBBd6V+PXNCpNGbk0Xg49xIXSMvyRQb+HFwXY5fy16AA0ySu/Ueff75ho/RtS8SyEtS0Dj1Pl7+tHotGpo36sGC8a0GVi1MINjWHHxIPHpjW/r8GbLSbp7ttswP7mfN4wY+Zxo50sIwfdP9WX07toLFzDbe+7gZfvJDPTl0tGU9tHIuZWfezOzN+bqX/fSr5Ky5rf6VJFltIBFXgJFKbnoKPQOz4ojPEVEliK6X62wEzMcwX7ZpLLb4GHThF3P5aa30aRsytXPTDoHCS3JGD4HfHS9bs0dOYoJ+Ty6KVrbJT+GZ8rhHpvvHnFG8iK/kYsvR5nKQhx9HWuYj/s+a43PGh1a+ef4Ql6yHM/pmfuk9Mc3FDL1uG9eOg2I6w0/j1IPB0eZ5hy0rLTEf5epInufN0dxz+a9slARDArRaOrICgBvNtXTRE3QajK/g0GdzkkJGr2UC9fzQfLcNHfhDgDNBsDMTj+TkGfM8SZHdGj8KeuLaKzjkegKClTCUT95jl+OKrb0mLPBpJLM3X893Y6B52SfeGZMcj83u65ldhLBAXi8W6Pe4zXIt7T1y73aRB5l3kplxn+UJ8xw7rmd4S1f2qXs1DuIF2XFUv8sBo7PtlY1cMIEYtUze0VjeeWAFQCuh/KjkMhmrefSjFTEDNFtJ0rZR4nlByB7G9wglx49w9bEjmeDiOGHHLJlyAWqRtTCe6fa49K6FjXrfDffmtJ5rvvrWGH/mGDJnhovPzWvpXJGjejjqZ+ru3XuNYlePIDXffcDGWfPxK3735KWdKXf1/iieymXpOSpH/jVJskVgmkCfRTozIomI+TttV5/AoR/tnLAhbZv57rK5HhE28n38KkmOdi7IRKfLndnMnNzdeYH5wuLPmbfbkqhm+Pfkp5yVIs/FYJaXPd0838V3JOuKd/jiNrUWutTj41dqzsdzfXSRyZpKuSv3R/MGDDJ3jvohPF9JUg9W+lwpZkYkaLvJm/NnNu6M3xmL3jPj2aVd0TIJVgqG3S76laAkIc/44ZrnK2Q7sz+Jakb4PXmZYytFnnN6sleeO1Zcn108VnSOxoCjYoc9vdOLZCSpXhFbyZ71jh31stIyp2cnwJHMlLVSHyN570KSI4Na7+4kpjOySdpZ25U/k8f7o0mQ8yg82bdCQiu2eTGDz+rnUSlbR1gRw2zHzvzUnTJ37pNwKfyjvuzobY1Nwlsp+jxt7G5MWnasPDtiK3IT77OkrryhX8Fr5Nu8yhuz0yGKb9RUiDJ8NLb1Lo/bM33SQ4/uUdu17e7xI1v1LsluJwkydisYSe9Kn/jMYtWSmYUGQa201L0yZzQmSRes2HWvEPZI7u673J2vEJ7XzJmj666tmZurWOWiuOLjyDbngJ36aMkckiQOo0A7jnREhswK4Wzy5qo4cjqDNFv9d227e7wHiSMe9pPw6E3dwn+Eh8vTdcZxFj/NW+lT9pFjapIC+bfSEp+VObMx2OLHR2HOcXB25J3JXn3vfq0Snj5Cwd5V/FbtGY1jByiM6Ffin4siOXS2uQ279ZG6vyNJDAbUVmKoUD0AGDMrMg8y448014ltvQR1XaNxssHHr9h293j8IqjurwJO8qA/iWg3CZKEkNfDUzit9rJV/eo8H5e+z/JLc3djo3mznprIX3zh35W4jWwQlvQrn9XlRuHs0XVkW74jF93efN+6z3y8wl63Ybc+0sZvGMu36CiBLNnFZQElELMkviJ5WZGcuCkk38rz3hOZsSur2K5td44nOdxHdPEsjx5ZBDtJoLmuR7HO5Dhy78nJ9W7DX5cBBquNfPW5q/NWx4HdXbj1bCCH3aeVWHsdMHelDnr6d58nN6zM90URfJNvVmT4mNyZrmDm8/P6NYs9wTB0BGwC8RYkieHYlEnqCaRrCmtkv4NwJ+mhZ1V+kgP3vSaik7+rSeD4ISMXxZHOni35PHe5+X527wWDf7PccnmZl/7uqmsKOG3MRewqXcjZjXWOp17esnkMwGnWMu9Xc3kkNzE4K/MrSVI8Kjh636G1jHEgVhJ5lShauvyZipoeG5CrH1ZPnq2So+Tu2nbXeCd//Bu1I0lAcYvAPGn0jDhiw9mCT3x24pF5tXK0dJxy/o5ulzO7zs/IicddbSfWxNjziJjuYnjWD48BuTBrvuBg+9ldJPoSs7Px+UqS7hjAzloWwsyIHD+T33qvne6MQFpzR892bbtj/G5QM17cz5qOYFk0kKIXFqR5pqVtswVXunKhpnh2C2YXR+lWL9tn+Yxd1Il+ZuMl/0ifPvVijU3EjvxUrLGvN/6ILStzhCG6ZzvJOz6LxMaUe3axbJLkaDeR22PAmCXJLrFkMFznTFfOnd3v2nbH+CyE0bGXgDuprRSCErdHPI4v8s4sROQOMvSTpNyKR/qEf0cSO8lrlyAUW4ps1LBN/tHPbPV47S5Cqas1XwSJHvDXhgLbVhcp/PV5zB3xQA+fzOXeOPxyXFbypCcrn5O/ig86zravJJnMC1itpnG+UmHMjLiUfDK8JXv0zPUha5aUI1n5bte2O8a3CoHEzwbOBJ1C8WPKiAycAEdxSr9GRJ125X0W26hQ5ZNyA//OxNdx2S082dBbTOSn+8fYWUtsZ+PzvZMJNlKHyg+wlc/C2cd7zEWmvdhqMRUOPjdtGt27/pYuyJcclh6u5c9I7uo7x3s3B1o6vpIkRrtjGA/wMDLA0SsQ2mXIQfoWEK4sZe+uUL4yuN7RNfaSzLNA79q2M57Ar473pMEv5mE/+POj9yQAcj0RGNdqxMUxao3RsywQ5h0lKxWj60a+x524ONkwFh+P6pQfnitguNpaCxWk48WLzb5gY/Msv9DvsWLObmvFxrHl2mvQ3zGX5mSqGk47Us+KbymDe5dDDETeYImdPJONVxMkOiSbfnYqaNmfz14jlgXlirh2ZwHP3/OO+Z5QKCLxMqmYBzACLg1q3bdI3PXPrltJsWsbNuz4siuf8Z48LZ+U8GCU73knEiIOnqga20sY5omENVZ9b04rTv4MG5IcJDN7/MbezB+Xt3oNji6f+5VGPvq82TU2r5JI4rBij48Bl158sNMJknmpT76wcRjVXebMqn9uq65zAZQN3qPv6pZxVE2c0fNKkgghoXDOi5Xg+PaecYDnzuo6ndbzXp/jR46skEhPD88zOUZjeZcJcvd4fKcYIHTt2tHJNc8y2C17KA5aJruPTcx7sfQ5icUoTvmOueRUq8jxrbW4pozde9fVWiB78sAfe5gDlh4HxYKFctdmJy1kHmmZG9QouGZeIJtacZ2tGm7ZkHmzusC0ZPEMnNwOMOS+lc89GbvPfSPD9RXtG5K8QuAdMgiWEpaAkzCjxngHi+BcBdhIb72bI+Dke5QwZlooTumBTGb5MpN39r1soYfYPmrzmrkrNnf6zoLhWJ9Z3N3OD0+SOK6d7W7C+44C8Kq9PwJeiMTk7G6l55HHPnfPvTl3PM/Cbe387tB7RKY2IsTlPTE7YjtzWIBEkuxYr2ofnjnc8Z2jEwDl8eEq0ErOcQR8l0dC78Z0VTO7CBUMi+t7kZPn4F2+rmIyGud4scB8tsZie1e8PzxJahcJALurmyfoZwz8Z0vUFXs5+iqZ6YnvXe294++F+5GP2cREO2/69/54YjcfsNd3wSzEV7YPT5Lu/O5K7B8a7xLslSCXrG8R8NMBRNn6DTqJfkXBuq63JCoKVwv8W+r9Fum1O9XJFXivabxulBM8uXQH1h+eJD3JSbrVVc6PdTvzrgtfSeoh4J8zazepvz7gnXaAVyW85xBE8FZHbxb1z7A4c9SGKFdrqxfXt37OTp14kkP87G6iVu398CSZBcXOEgLsBZTxXhQQ5F2/HFgFucZ9j4AvYkpy9cSM91c2dqsuH/Lq5dCVekvW9QgQNy2kxPSOfHGrPzxJYiwkpyOBEp0ewuS5fgDL3/P8rXYNDmpdryHA7tHjSjzZDdwVs9YCqh3smsU16r0RyMWVDdHdi92nIEkFBrJkBaGwfJstYoQkeceYuwpNtlT/eREgNyBjSLlOGZ8rjixq1P5b1vinIsnPFc6ythAoBB4BgSLJR4hi+VAIFAK3IVAkeRu0JbgQKAQeAYEiyUeIYvlQCBQCtyFQJHkbtCW4ECgEHgGBIslHiGL5UAgUArchUCR5G7QluBAoBB4BgSLJR4hi+VAIFAK3IVAkeRu0JbgQKAQeAYEiyUeIYvlQCBQCtyFQJHkbtCW4ECgEHgGBIslHiGL5UAgUArchUCT5f2j5dpH8/1e45znft8eXIVz1/Ya3RbMEFwKFwOUIPD1J8o0w+kYhSFHfCsPXL/n3UvJNQ3d9qeflUS2BhUAhcBkCT02SEKK+g7K1S4Qo9TVs9PXdg5flXQkqBD4NAk9LkhAgR2jIj++g7DUnyfqOyh5K9bwQeFwEnpYkOTqLAPnMsdV8JwmhVisECoHnQ+ApSZIdoQiSzyN7DfLUuNZxvDevnhcChcDjIPCUJOn/KVTrvzNVeP0/G7r6P6aSjuoLgULgYyPwlCTp//mUfpvdCpN+681usj6PbCFUzwqBx0fgKUlSR2j6XvMjeX0e2UOpnhcCj49AnyUe2PcVkvQ/LK/PIx84Gcq1QmCCQJFkA6D8v31Hn1s2ptejQqAQeCAEnp4k87NGfqPNH5j7v7bxPxHiT4dGn2M+UG6UK4VAIfDy8vKUJJlHaf4ekh/9Npte1xzN2UnyXsRZv+mu2ikEngeBpyRJ//tH/3ySaxEgu8V8xw5T758nRcrTQuC5EXhKkiTk/Dts/YkP5OdfbqGU8H+V03qvcdUXAoXA4yLwtCT5uCEtzwqBQuBKBIokr0SzZBUChcDDIVAk+XAhLYcKgULgSgSKJK9Es2QVAoXAwyFQJPlwIS2HCoFC4EoEiiSvRLNkFQKFwMMh8D9oUnkaE42dNAAAAABJRU5ErkJggg==;" parent="1" vertex="1">
          <mxGeometry x="248.5" y="1026" width="199.13" height="46" as="geometry" />
        </mxCell>
        <mxCell id="Q33X_0vtCbviZvREUbf4-61" value="" style="edgeStyle=orthogonalEdgeStyle;rounded=0;orthogonalLoop=1;jettySize=auto;html=1;startArrow=none;startFill=0;endArrow=classic;endFill=1;fontSize=21;" parent="1" source="Q33X_0vtCbviZvREUbf4-58" target="Q33X_0vtCbviZvREUbf4-60" edge="1">
          <mxGeometry relative="1" as="geometry" />
        </mxCell>
        <mxCell id="Q33X_0vtCbviZvREUbf4-58" value="目标网络" style="rounded=0;whiteSpace=wrap;html=1;strokeColor=#6c8ebf;fontSize=21;fillColor=#99CCFF;" parent="1" vertex="1">
          <mxGeometry x="701.25" y="932" width="120" height="60" as="geometry" />
        </mxCell>
        <mxCell id="Q33X_0vtCbviZvREUbf4-60" value="DQN损失函数" style="rounded=0;whiteSpace=wrap;html=1;fillColor=#d5e8d4;strokeColor=#82b366;fontSize=21;" parent="1" vertex="1">
          <mxGeometry x="688.5" y="792" width="145.5" height="60" as="geometry" />
        </mxCell>
        <mxCell id="Q33X_0vtCbviZvREUbf4-62" value="" style="endArrow=classic;html=1;exitX=1;exitY=0.5;exitDx=0;exitDy=0;entryX=1;entryY=0.5;entryDx=0;entryDy=0;fontSize=21;" parent="1" source="Q33X_0vtCbviZvREUbf4-46" target="Q33X_0vtCbviZvREUbf4-60" edge="1">
          <mxGeometry width="50" height="50" relative="1" as="geometry">
            <mxPoint x="968.5" y="1152" as="sourcePoint" />
            <mxPoint x="1018.5" y="1102" as="targetPoint" />
            <Array as="points">
              <mxPoint x="888.5" y="1102" />
              <mxPoint x="888.5" y="822" />
            </Array>
          </mxGeometry>
        </mxCell>
        <mxCell id="Q33X_0vtCbviZvREUbf4-63" value="" style="endArrow=classic;html=1;exitX=0.75;exitY=0;exitDx=0;exitDy=0;entryX=0;entryY=0.5;entryDx=0;entryDy=0;fontSize=21;dashed=1;" parent="1" source="Q33X_0vtCbviZvREUbf4-43" target="Q33X_0vtCbviZvREUbf4-58" edge="1">
          <mxGeometry width="50" height="50" relative="1" as="geometry">
            <mxPoint x="628.5" y="1012" as="sourcePoint" />
            <mxPoint x="678.5" y="962" as="targetPoint" />
            <Array as="points">
              <mxPoint x="524.5" y="962" />
            </Array>
          </mxGeometry>
        </mxCell>
        <mxCell id="Q33X_0vtCbviZvREUbf4-64" value="" style="endArrow=classic;html=1;exitX=0.5;exitY=0;exitDx=0;exitDy=0;entryX=0;entryY=0.75;entryDx=0;entryDy=0;fontSize=21;" parent="1" source="Q33X_0vtCbviZvREUbf4-43" target="Q33X_0vtCbviZvREUbf4-60" edge="1">
          <mxGeometry width="50" height="50" relative="1" as="geometry">
            <mxPoint x="378.5" y="972" as="sourcePoint" />
            <mxPoint x="428.5" y="922" as="targetPoint" />
            <Array as="points">
              <mxPoint x="494.5" y="837" />
            </Array>
          </mxGeometry>
        </mxCell>
        <mxCell id="Q33X_0vtCbviZvREUbf4-65" value="" style="endArrow=classic;html=1;exitX=0;exitY=0.25;exitDx=0;exitDy=0;entryX=0.25;entryY=0;entryDx=0;entryDy=0;fontSize=21;strokeWidth=2;" parent="1" source="Q33X_0vtCbviZvREUbf4-60" target="Q33X_0vtCbviZvREUbf4-43" edge="1">
          <mxGeometry width="50" height="50" relative="1" as="geometry">
            <mxPoint x="458.5" y="802" as="sourcePoint" />
            <mxPoint x="508.5" y="752" as="targetPoint" />
            <Array as="points">
              <mxPoint x="464.5" y="807" />
            </Array>
          </mxGeometry>
        </mxCell>
        <mxCell id="Q33X_0vtCbviZvREUbf4-69" value="&lt;span style=&quot;font-weight: normal&quot;&gt;损失函数的梯度&lt;/span&gt;" style="text;html=1;strokeColor=none;fillColor=none;align=center;verticalAlign=middle;whiteSpace=wrap;rounded=0;fontSize=21;fontStyle=1" parent="1" vertex="1">
          <mxGeometry x="468.5" y="782" width="250" height="20" as="geometry" />
        </mxCell>
        <mxCell id="Q33X_0vtCbviZvREUbf4-70" value="&lt;span style=&quot;font-weight: normal&quot;&gt;每C轮次参数复制&lt;/span&gt;" style="text;html=1;strokeColor=none;fillColor=none;align=center;verticalAlign=middle;whiteSpace=wrap;rounded=0;fontSize=21;fontStyle=1" parent="1" vertex="1">
          <mxGeometry x="478.73" y="932" width="250" height="20" as="geometry" />
        </mxCell>
        <mxCell id="Q33X_0vtCbviZvREUbf4-73" value="" style="edgeStyle=orthogonalEdgeStyle;rounded=0;orthogonalLoop=1;jettySize=auto;html=1;fontSize=21;startArrow=none;startFill=0;endArrow=classic;endFill=1;strokeWidth=1;" parent="1" source="Q33X_0vtCbviZvREUbf4-71" target="Q33X_0vtCbviZvREUbf4-72" edge="1">
          <mxGeometry relative="1" as="geometry" />
        </mxCell>
        <mxCell id="Q33X_0vtCbviZvREUbf4-71" value="Critic网络损失函数" style="rounded=0;whiteSpace=wrap;html=1;fontSize=21;fillColor=#d5e8d4;strokeColor=#82b366;" parent="1" vertex="1">
          <mxGeometry x="1807" y="879" width="289" height="60" as="geometry" />
        </mxCell>
        <mxCell id="Q33X_0vtCbviZvREUbf4-72" value="Actor网络损失函数" style="rounded=0;whiteSpace=wrap;html=1;fontSize=21;fillColor=#d5e8d4;strokeColor=#82b366;" parent="1" vertex="1">
          <mxGeometry x="1430" y="879" width="316" height="60" as="geometry" />
        </mxCell>
        <mxCell id="Q33X_0vtCbviZvREUbf4-82" value="" style="edgeStyle=orthogonalEdgeStyle;rounded=0;orthogonalLoop=1;jettySize=auto;html=1;fontSize=21;startArrow=none;startFill=0;endArrow=classic;endFill=1;strokeWidth=1;" parent="1" source="Q33X_0vtCbviZvREUbf4-74" target="Q33X_0vtCbviZvREUbf4-75" edge="1">
          <mxGeometry relative="1" as="geometry" />
        </mxCell>
        <mxCell id="Q33X_0vtCbviZvREUbf4-74" value="Actor&lt;br&gt;估计网络" style="whiteSpace=wrap;html=1;aspect=fixed;fontSize=21;fillColor=#dae8fc;strokeColor=#6c8ebf;" parent="1" vertex="1">
          <mxGeometry x="1419" y="715" width="111" height="111" as="geometry" />
        </mxCell>
        <mxCell id="Q33X_0vtCbviZvREUbf4-75" value="Actor&lt;br&gt;目标网络" style="whiteSpace=wrap;html=1;aspect=fixed;fontSize=21;strokeColor=#6c8ebf;fillColor=#99CCFF;" parent="1" vertex="1">
          <mxGeometry x="1636" y="715" width="111" height="111" as="geometry" />
        </mxCell>
        <mxCell id="Q33X_0vtCbviZvREUbf4-76" value="Critic&lt;br&gt;目标网络" style="whiteSpace=wrap;html=1;aspect=fixed;fontSize=21;strokeColor=#6c8ebf;fillColor=#99CCFF;" parent="1" vertex="1">
          <mxGeometry x="1998" y="710" width="111" height="111" as="geometry" />
        </mxCell>
        <mxCell id="Q33X_0vtCbviZvREUbf4-83" value="" style="edgeStyle=orthogonalEdgeStyle;rounded=0;orthogonalLoop=1;jettySize=auto;html=1;fontSize=21;startArrow=none;startFill=0;endArrow=classic;endFill=1;strokeWidth=1;" parent="1" source="Q33X_0vtCbviZvREUbf4-77" target="Q33X_0vtCbviZvREUbf4-76" edge="1">
          <mxGeometry relative="1" as="geometry" />
        </mxCell>
        <mxCell id="Q33X_0vtCbviZvREUbf4-77" value="Critic&lt;br&gt;估计网络" style="whiteSpace=wrap;html=1;aspect=fixed;fontSize=21;fillColor=#dae8fc;strokeColor=#6c8ebf;" parent="1" vertex="1">
          <mxGeometry x="1803" y="710" width="111" height="111" as="geometry" />
        </mxCell>
        <mxCell id="Q33X_0vtCbviZvREUbf4-78" value="环境" style="rounded=0;whiteSpace=wrap;html=1;fillColor=#fff2cc;strokeColor=#d6b656;fontSize=21;" parent="1" vertex="1">
          <mxGeometry x="1221" y="735.5" width="120" height="60" as="geometry" />
        </mxCell>
        <mxCell id="Q33X_0vtCbviZvREUbf4-79" value="" style="endArrow=classic;html=1;fontSize=21;strokeWidth=1;entryX=-0.009;entryY=0.355;entryDx=0;entryDy=0;entryPerimeter=0;" parent="1" target="Q33X_0vtCbviZvREUbf4-74" edge="1">
          <mxGeometry width="50" height="50" relative="1" as="geometry">
            <mxPoint x="1341" y="754" as="sourcePoint" />
            <mxPoint x="1431" y="629" as="targetPoint" />
          </mxGeometry>
        </mxCell>
        <mxCell id="Q33X_0vtCbviZvREUbf4-80" value="" style="endArrow=classic;html=1;fontSize=21;strokeWidth=1;" parent="1" edge="1">
          <mxGeometry width="50" height="50" relative="1" as="geometry">
            <mxPoint x="1417" y="780" as="sourcePoint" />
            <mxPoint x="1339" y="780" as="targetPoint" />
          </mxGeometry>
        </mxCell>
        <mxCell id="Q33X_0vtCbviZvREUbf4-84" value="" style="endArrow=classic;html=1;fontSize=21;strokeWidth=1;exitX=0.25;exitY=0;exitDx=0;exitDy=0;entryX=0.801;entryY=1.023;entryDx=0;entryDy=0;entryPerimeter=0;" parent="1" source="Q33X_0vtCbviZvREUbf4-72" target="Q33X_0vtCbviZvREUbf4-74" edge="1">
          <mxGeometry width="50" height="50" relative="1" as="geometry">
            <mxPoint x="1433" y="857" as="sourcePoint" />
            <mxPoint x="1483" y="807" as="targetPoint" />
          </mxGeometry>
        </mxCell>
        <mxCell id="Q33X_0vtCbviZvREUbf4-85" value="" style="endArrow=classic;html=1;fontSize=21;strokeWidth=1;exitX=0.272;exitY=1.003;exitDx=0;exitDy=0;exitPerimeter=0;entryX=0.061;entryY=0.019;entryDx=0;entryDy=0;entryPerimeter=0;" parent="1" source="Q33X_0vtCbviZvREUbf4-74" target="Q33X_0vtCbviZvREUbf4-72" edge="1">
          <mxGeometry width="50" height="50" relative="1" as="geometry">
            <mxPoint x="1529" y="862" as="sourcePoint" />
            <mxPoint x="1579" y="812" as="targetPoint" />
          </mxGeometry>
        </mxCell>
        <mxCell id="Q33X_0vtCbviZvREUbf4-86" value="" style="endArrow=classic;html=1;fontSize=21;strokeWidth=1;exitX=0.5;exitY=1;exitDx=0;exitDy=0;entryX=0.827;entryY=-0.001;entryDx=0;entryDy=0;entryPerimeter=0;" parent="1" source="Q33X_0vtCbviZvREUbf4-75" target="Q33X_0vtCbviZvREUbf4-72" edge="1">
          <mxGeometry width="50" height="50" relative="1" as="geometry">
            <mxPoint x="1657" y="884" as="sourcePoint" />
            <mxPoint x="1707" y="834" as="targetPoint" />
          </mxGeometry>
        </mxCell>
        <mxCell id="Q33X_0vtCbviZvREUbf4-88" value="" style="endArrow=classic;html=1;fontSize=21;strokeWidth=1;exitX=0.167;exitY=0.993;exitDx=0;exitDy=0;exitPerimeter=0;entryX=0.052;entryY=-0.022;entryDx=0;entryDy=0;entryPerimeter=0;" parent="1" source="Q33X_0vtCbviZvREUbf4-77" target="Q33X_0vtCbviZvREUbf4-71" edge="1">
          <mxGeometry width="50" height="50" relative="1" as="geometry">
            <mxPoint x="1820" y="888" as="sourcePoint" />
            <mxPoint x="1870" y="838" as="targetPoint" />
          </mxGeometry>
        </mxCell>
        <mxCell id="Q33X_0vtCbviZvREUbf4-89" value="" style="endArrow=classic;html=1;fontSize=21;strokeWidth=1;exitX=0.237;exitY=-0.022;exitDx=0;exitDy=0;exitPerimeter=0;" parent="1" source="Q33X_0vtCbviZvREUbf4-71" edge="1">
          <mxGeometry width="50" height="50" relative="1" as="geometry">
            <mxPoint x="1835" y="909" as="sourcePoint" />
            <mxPoint x="1876" y="822" as="targetPoint" />
          </mxGeometry>
        </mxCell>
        <mxCell id="Q33X_0vtCbviZvREUbf4-90" value="" style="endArrow=classic;html=1;fontSize=21;strokeWidth=1;exitX=0.5;exitY=1;exitDx=0;exitDy=0;" parent="1" source="Q33X_0vtCbviZvREUbf4-76" edge="1">
          <mxGeometry width="50" height="50" relative="1" as="geometry">
            <mxPoint x="1961" y="897" as="sourcePoint" />
            <mxPoint x="2054" y="877" as="targetPoint" />
          </mxGeometry>
        </mxCell>
        <mxCell id="Q33X_0vtCbviZvREUbf4-92" value="" style="endArrow=classic;html=1;fontSize=21;strokeWidth=1;exitX=0.5;exitY=0;exitDx=0;exitDy=0;entryX=0.5;entryY=0;entryDx=0;entryDy=0;" parent="1" source="Q33X_0vtCbviZvREUbf4-74" target="Q33X_0vtCbviZvREUbf4-77" edge="1">
          <mxGeometry width="50" height="50" relative="1" as="geometry">
            <mxPoint x="1572" y="619" as="sourcePoint" />
            <mxPoint x="1622" y="569" as="targetPoint" />
            <Array as="points">
              <mxPoint x="1475" y="653" />
              <mxPoint x="1859" y="653" />
            </Array>
          </mxGeometry>
        </mxCell>
        <mxCell id="Q33X_0vtCbviZvREUbf4-93" value="" style="endArrow=classic;html=1;fontSize=21;strokeWidth=1;exitX=0.5;exitY=0;exitDx=0;exitDy=0;entryX=0.5;entryY=0;entryDx=0;entryDy=0;" parent="1" source="Q33X_0vtCbviZvREUbf4-75" target="Q33X_0vtCbviZvREUbf4-76" edge="1">
          <mxGeometry width="50" height="50" relative="1" as="geometry">
            <mxPoint x="1946" y="652" as="sourcePoint" />
            <mxPoint x="1996" y="602" as="targetPoint" />
            <Array as="points">
              <mxPoint x="1692" y="626" />
              <mxPoint x="2054" y="626" />
            </Array>
          </mxGeometry>
        </mxCell>
        <mxCell id="Q33X_0vtCbviZvREUbf4-94" value="软更新" style="text;html=1;strokeColor=none;fillColor=none;align=center;verticalAlign=middle;whiteSpace=wrap;rounded=0;fontSize=21;" parent="1" vertex="1">
          <mxGeometry x="1548" y="740" width="70" height="20" as="geometry" />
        </mxCell>
        <mxCell id="Q33X_0vtCbviZvREUbf4-95" value="软更新" style="text;html=1;strokeColor=none;fillColor=none;align=center;verticalAlign=middle;whiteSpace=wrap;rounded=0;fontSize=21;" parent="1" vertex="1">
          <mxGeometry x="1917" y="740" width="81" height="20" as="geometry" />
        </mxCell>
        <mxCell id="Q33X_0vtCbviZvREUbf4-99" value="环&amp;nbsp; 境" style="rounded=1;whiteSpace=wrap;html=1;fontSize=21;fillColor=#ffe6cc;strokeColor=none;" parent="1" vertex="1">
          <mxGeometry x="515" y="2089" width="183" height="52" as="geometry" />
        </mxCell>
        <mxCell id="Q33X_0vtCbviZvREUbf4-100" value="策略" style="rounded=0;whiteSpace=wrap;html=1;fontSize=21;fillColor=#e1d5e7;strokeColor=none;" parent="1" vertex="1">
          <mxGeometry x="554" y="1757" width="120" height="46" as="geometry" />
        </mxCell>
        <mxCell id="Q33X_0vtCbviZvREUbf4-101" value="值函数" style="rounded=1;whiteSpace=wrap;html=1;fontSize=21;fillColor=#d5e8d4;strokeColor=none;" parent="1" vertex="1">
          <mxGeometry x="500" y="1930" width="120" height="60" as="geometry" />
        </mxCell>
        <mxCell id="Q33X_0vtCbviZvREUbf4-102" value="" style="endArrow=classic;html=1;fontSize=21;strokeWidth=1;exitX=0.25;exitY=0;exitDx=0;exitDy=0;entryX=0.5;entryY=1;entryDx=0;entryDy=0;entryPerimeter=0;" parent="1" source="Q33X_0vtCbviZvREUbf4-99" target="Q33X_0vtCbviZvREUbf4-101" edge="1">
          <mxGeometry width="50" height="50" relative="1" as="geometry">
            <mxPoint x="530" y="2020" as="sourcePoint" />
            <mxPoint x="550" y="1960" as="targetPoint" />
          </mxGeometry>
        </mxCell>
        <mxCell id="Q33X_0vtCbviZvREUbf4-103" value="" style="endArrow=classic;html=1;fontSize=21;strokeWidth=1;exitX=0;exitY=0.5;exitDx=0;exitDy=0;entryX=0;entryY=0.5;entryDx=0;entryDy=0;" parent="1" source="Q33X_0vtCbviZvREUbf4-99" target="Q33X_0vtCbviZvREUbf4-100" edge="1">
          <mxGeometry width="50" height="50" relative="1" as="geometry">
            <mxPoint x="540" y="1810" as="sourcePoint" />
            <mxPoint x="550" y="1780" as="targetPoint" />
            <Array as="points">
              <mxPoint x="440" y="2115" />
              <mxPoint x="440" y="1780" />
            </Array>
          </mxGeometry>
        </mxCell>
        <mxCell id="Q33X_0vtCbviZvREUbf4-104" value="" style="endArrow=classic;html=1;fontSize=21;strokeWidth=1;entryX=0;entryY=0.5;entryDx=0;entryDy=0;" parent="1" target="Q33X_0vtCbviZvREUbf4-101" edge="1">
          <mxGeometry width="50" height="50" relative="1" as="geometry">
            <mxPoint x="440" y="1960" as="sourcePoint" />
            <mxPoint x="540" y="1950" as="targetPoint" />
          </mxGeometry>
        </mxCell>
        <mxCell id="Q33X_0vtCbviZvREUbf4-105" value="" style="endArrow=classic;html=1;fontSize=21;strokeWidth=1;exitX=1;exitY=0.5;exitDx=0;exitDy=0;entryX=1;entryY=0.5;entryDx=0;entryDy=0;" parent="1" source="Q33X_0vtCbviZvREUbf4-100" target="Q33X_0vtCbviZvREUbf4-99" edge="1">
          <mxGeometry width="50" height="50" relative="1" as="geometry">
            <mxPoint x="850" y="1810" as="sourcePoint" />
            <mxPoint x="900" y="1770" as="targetPoint" />
            <Array as="points">
              <mxPoint x="770" y="1780" />
              <mxPoint x="770" y="2115" />
            </Array>
          </mxGeometry>
        </mxCell>
        <mxCell id="Q33X_0vtCbviZvREUbf4-106" value="&lt;font color=&quot;#000066&quot;&gt;状态&lt;/font&gt;" style="text;html=1;strokeColor=none;fillColor=none;align=center;verticalAlign=middle;whiteSpace=wrap;rounded=0;fontSize=21;" parent="1" vertex="1">
          <mxGeometry x="369" y="1950" width="51" height="20" as="geometry" />
        </mxCell>
        <mxCell id="Q33X_0vtCbviZvREUbf4-107" value="&lt;font color=&quot;#000066&quot;&gt;动作&lt;/font&gt;" style="text;html=1;strokeColor=none;fillColor=none;align=center;verticalAlign=middle;whiteSpace=wrap;rounded=0;fontSize=21;" parent="1" vertex="1">
          <mxGeometry x="775" y="1950" width="57" height="20" as="geometry" />
        </mxCell>
        <mxCell id="Q33X_0vtCbviZvREUbf4-108" value="&lt;i&gt;&lt;span style=&quot;background-color: rgb(230 , 230 , 230)&quot;&gt;Actor&lt;/span&gt;&lt;br&gt;&lt;/i&gt;" style="text;html=1;strokeColor=none;fillColor=none;align=center;verticalAlign=middle;whiteSpace=wrap;rounded=0;fontSize=21;" parent="1" vertex="1">
          <mxGeometry x="494" y="1798" width="60" height="25" as="geometry" />
        </mxCell>
        <mxCell id="Q33X_0vtCbviZvREUbf4-109" value="&lt;i style=&quot;background-color: rgb(230 , 230 , 230)&quot;&gt;Critic&lt;/i&gt;" style="text;html=1;strokeColor=none;fillColor=none;align=center;verticalAlign=middle;whiteSpace=wrap;rounded=0;fontSize=21;" parent="1" vertex="1">
          <mxGeometry x="452" y="1902" width="60" height="25" as="geometry" />
        </mxCell>
        <mxCell id="Q33X_0vtCbviZvREUbf4-110" value="&lt;font color=&quot;#000066&quot;&gt;奖励&lt;/font&gt;" style="text;html=1;strokeColor=none;fillColor=none;align=center;verticalAlign=middle;whiteSpace=wrap;rounded=0;fontSize=21;" parent="1" vertex="1">
          <mxGeometry x="572.73" y="2030" width="62" height="20" as="geometry" />
        </mxCell>
        <mxCell id="Q33X_0vtCbviZvREUbf4-111" value="" style="endArrow=none;html=1;fontSize=21;strokeWidth=1;exitX=1;exitY=0.5;exitDx=0;exitDy=0;curved=1;entryX=0.5;entryY=0;entryDx=0;entryDy=0;" parent="1" source="Q33X_0vtCbviZvREUbf4-101" target="Q33X_0vtCbviZvREUbf4-101" edge="1">
          <mxGeometry width="50" height="50" relative="1" as="geometry">
            <mxPoint x="950" y="2040" as="sourcePoint" />
            <mxPoint x="600" y="1900" as="targetPoint" />
            <Array as="points">
              <mxPoint x="680" y="1930" />
              <mxPoint x="670" y="1850" />
              <mxPoint x="580" y="1860" />
            </Array>
          </mxGeometry>
        </mxCell>
        <mxCell id="Q33X_0vtCbviZvREUbf4-112" value="" style="endArrow=classic;html=1;fontSize=21;strokeWidth=1;exitX=0.25;exitY=1;exitDx=0;exitDy=0;" parent="1" source="Q33X_0vtCbviZvREUbf4-101" edge="1">
          <mxGeometry width="50" height="50" relative="1" as="geometry">
            <mxPoint x="510" y="2050" as="sourcePoint" />
            <mxPoint x="510" y="2020" as="targetPoint" />
          </mxGeometry>
        </mxCell>
        <mxCell id="Q33X_0vtCbviZvREUbf4-113" value="" style="endArrow=classic;html=1;fontSize=21;strokeWidth=1;" parent="1" edge="1">
          <mxGeometry width="50" height="50" relative="1" as="geometry">
            <mxPoint x="613.73" y="1760" as="sourcePoint" />
            <mxPoint x="594" y="1730" as="targetPoint" />
          </mxGeometry>
        </mxCell>
        <mxCell id="Q33X_0vtCbviZvREUbf4-114" value="" style="endArrow=none;html=1;fontSize=21;strokeWidth=1;" parent="1" source="Q33X_0vtCbviZvREUbf4-100" edge="1">
          <mxGeometry width="50" height="50" relative="1" as="geometry">
            <mxPoint x="970" y="2040" as="sourcePoint" />
            <mxPoint x="670" y="1870" as="targetPoint" />
          </mxGeometry>
        </mxCell>
        <mxCell id="Q33X_0vtCbviZvREUbf4-117" value="&lt;font style=&quot;font-size: 17px&quot;&gt;时序&lt;br&gt;差分&lt;br&gt;误差&lt;/font&gt;" style="text;html=1;align=center;verticalAlign=middle;whiteSpace=wrap;rounded=0;fontSize=21;fontColor=#333333;" parent="1" vertex="1">
          <mxGeometry x="669.73" y="1888" width="59" height="53" as="geometry" />
        </mxCell>
      </root>
    </mxGraphModel>
  </diagram>
</mxfile>
